<?xml version="1.0" encoding="UTF-8"?>
<!DOCTYPE svg PUBLIC "-//W3C//DTD SVG 1.1//EN" "http://www.w3.org/Graphics/SVG/1.1/DTD/svg11.dtd">
<svg xmlns="http://www.w3.org/2000/svg" version="1.1" width="500px" height="500px" style="shape-rendering:geometricPrecision; text-rendering:geometricPrecision; image-rendering:optimizeQuality; fill-rule:evenodd; clip-rule:evenodd" xmlns:xlink="http://www.w3.org/1999/xlink">
<g><path style="opacity:1" fill="#000000" d="M -0.5,-0.5 C 166.167,-0.5 332.833,-0.5 499.5,-0.5C 499.5,166.167 499.5,332.833 499.5,499.5C 332.833,499.5 166.167,499.5 -0.5,499.5C -0.5,332.833 -0.5,166.167 -0.5,-0.5 Z"/></g>
<g><path style="opacity:1" fill="#520202" d="M 216.5,221.5 C 210.158,221.334 203.825,221.5 197.5,222C 196.529,227.072 196.195,232.238 196.5,237.5C 195.833,237.5 195.5,237.167 195.5,236.5C 195.5,231.5 195.5,226.5 195.5,221.5C 202.599,220.19 209.599,220.19 216.5,221.5 Z"/></g>
<g><path style="opacity:1" fill="#320302" d="M 314.5,221.5 C 311.813,221.336 309.146,221.503 306.5,222C 305.577,224.041 305.244,226.208 305.5,228.5C 304.837,226.958 304.17,225.291 303.5,223.5C 302.833,226.977 302.166,230.311 301.5,233.5C 301.5,229.5 301.5,225.5 301.5,221.5C 305.989,220.429 310.322,220.429 314.5,221.5 Z"/></g>
<g><path style="opacity:1" fill="#b72c32" d="M 216.5,221.5 C 216.5,224.5 216.5,227.5 216.5,230.5C 215.833,230.5 215.167,230.5 214.5,230.5C 215.388,227.946 215.721,225.279 215.5,222.5C 210.305,222.179 205.305,222.513 200.5,223.5C 199.5,223.5 198.5,223.5 197.5,223.5C 197.5,224.5 197.5,225.5 197.5,226.5C 197.5,230.833 197.5,235.167 197.5,239.5C 197.167,239.5 196.833,239.5 196.5,239.5C 196.5,238.833 196.5,238.167 196.5,237.5C 196.195,232.238 196.529,227.072 197.5,222C 203.825,221.5 210.158,221.334 216.5,221.5 Z"/></g>
<g><path style="opacity:1" fill="#7f2326" d="M 186.5,223.5 C 182.833,223.5 179.167,223.5 175.5,223.5C 176.871,222.213 178.705,221.547 181,221.5C 183.295,221.547 185.129,222.213 186.5,223.5 Z"/></g>
<g><path style="opacity:1" fill="#9d292a" d="M 278.5,220.5 C 278.823,227.022 278.49,233.355 277.5,239.5C 277.5,233.5 277.5,227.5 277.5,221.5C 274.833,221.5 272.167,221.5 269.5,221.5C 269.5,223.5 269.5,225.5 269.5,227.5C 269.817,231.702 269.483,235.702 268.5,239.5C 268.5,233.167 268.5,226.833 268.5,220.5C 271.833,219.167 275.167,219.167 278.5,220.5 Z"/></g>
<g><path style="opacity:1" fill="#da2323" d="M 173.5,223.5 C 174.167,223.5 174.833,223.5 175.5,223.5C 179.167,223.5 182.833,223.5 186.5,223.5C 186.833,223.5 187.167,223.5 187.5,223.5C 188.08,225.749 189.413,227.415 191.5,228.5C 191.5,231.167 191.5,233.833 191.5,236.5C 188.5,236.5 185.5,236.5 182.5,236.5C 183.244,233.05 181.91,231.384 178.5,231.5C 178.523,233.927 179.023,236.26 180,238.5C 180.671,239.252 181.504,239.586 182.5,239.5C 184.885,242.266 187.718,244.599 191,246.5C 192.094,248.078 192.928,249.745 193.5,251.5C 193.979,258.015 193.312,264.348 191.5,270.5C 191.5,270.833 191.5,271.167 191.5,271.5C 190.167,271.5 188.833,271.5 187.5,271.5C 187.351,270.448 187.517,269.448 188,268.5C 189.676,267.939 191.009,266.939 192,265.5C 192.667,261.167 192.667,256.833 192,252.5C 189.24,246.988 184.74,243.655 178.5,242.5C 177.514,238.557 176.848,234.557 176.5,230.5C 180.343,230.809 181.676,229.309 180.5,226C 176.153,224.923 172.986,226.423 171,230.5C 170.502,233.482 170.335,236.482 170.5,239.5C 169.359,236.36 169.192,233.027 170,229.5C 171.947,227.937 173.114,225.937 173.5,223.5 Z"/></g>
<g><path style="opacity:1" fill="#771416" d="M 187.5,223.5 C 189.587,224.585 190.92,226.251 191.5,228.5C 189.413,227.415 188.08,225.749 187.5,223.5 Z"/></g>
<g><path style="opacity:1" fill="#4f0200" d="M 216.5,221.5 C 217.5,221.5 218.5,221.5 219.5,221.5C 219.5,224.5 219.5,227.5 219.5,230.5C 218.5,230.5 217.5,230.5 216.5,230.5C 216.5,227.5 216.5,224.5 216.5,221.5 Z"/></g>
<g><path style="opacity:1" fill="#9b1f25" d="M 241.5,220.5 C 241.5,223.5 241.5,226.5 241.5,229.5C 241.158,230.338 240.492,230.672 239.5,230.5C 239.5,230.167 239.5,229.833 239.5,229.5C 239.5,226.833 239.5,224.167 239.5,221.5C 233.491,221.334 227.491,221.501 221.5,222C 220.577,224.041 220.244,226.208 220.5,228.5C 222.582,228.472 224.416,229.139 226,230.5C 226.5,238.827 226.666,247.16 226.5,255.5C 226.167,255.5 225.833,255.5 225.5,255.5C 225.666,247.493 225.5,239.493 225,231.5C 223.301,230.594 221.467,230.261 219.5,230.5C 219.5,227.5 219.5,224.5 219.5,221.5C 222.598,220.179 226.098,219.512 230,219.5C 233.915,219.533 237.749,219.867 241.5,220.5 Z"/></g>
<g><path style="opacity:1" fill="#7a1619" d="M 291.5,221.5 C 294.833,220.167 298.167,220.167 301.5,221.5C 301.5,225.5 301.5,229.5 301.5,233.5C 301.795,235.735 301.461,237.735 300.5,239.5C 301.117,233.402 300.45,227.735 298.5,222.5C 297.081,221.549 295.415,221.216 293.5,221.5C 292.833,221.5 292.167,221.5 291.5,221.5 Z"/></g>
<g><path style="opacity:1" fill="#f51a1b" d="M 239.5,229.5 C 237.833,229.5 236.167,229.5 234.5,229.5C 234.5,242.5 234.5,255.5 234.5,268.5C 232.167,268.5 229.833,268.5 227.5,268.5C 227.818,263.968 227.485,259.634 226.5,255.5C 226.666,247.16 226.5,238.827 226,230.5C 224.416,229.139 222.582,228.472 220.5,228.5C 220.244,226.208 220.577,224.041 221.5,222C 227.491,221.501 233.491,221.334 239.5,221.5C 239.5,224.167 239.5,226.833 239.5,229.5 Z"/></g>
<g><path style="opacity:1" fill="#160201" d="M 305.5,228.5 C 305.5,229.167 305.833,229.5 306.5,229.5C 306.691,237.201 306.358,244.868 305.5,252.5C 305.737,253.791 305.404,254.791 304.5,255.5C 302.839,258.445 301.672,261.779 301,265.5C 300.502,262.183 300.335,258.85 300.5,255.5C 300.5,250.167 300.5,244.833 300.5,239.5C 301.461,237.735 301.795,235.735 301.5,233.5C 302.166,230.311 302.833,226.977 303.5,223.5C 304.17,225.291 304.837,226.958 305.5,228.5 Z"/></g>
<g><path style="opacity:1" fill="#fc1614" d="M 183.5,226.5 C 188.815,226.497 190.815,229.164 189.5,234.5C 187.833,234.5 186.167,234.5 184.5,234.5C 184.425,231.794 184.092,229.127 183.5,226.5 Z"/></g>
<g><path style="opacity:1" fill="#701011" d="M 314.5,221.5 C 316.344,223.279 317.01,225.612 316.5,228.5C 317.5,228.5 318.5,228.5 319.5,228.5C 319.152,230.713 318.319,232.713 317,234.5C 315.927,230.916 315.26,227.25 315,223.5C 308.568,220.697 305.735,222.697 306.5,229.5C 305.833,229.5 305.5,229.167 305.5,228.5C 305.244,226.208 305.577,224.041 306.5,222C 309.146,221.503 311.813,221.336 314.5,221.5 Z"/></g>
<g><path style="opacity:1" fill="#370609" d="M 195.5,221.5 C 195.5,226.5 195.5,231.5 195.5,236.5C 194.298,235.595 192.964,235.595 191.5,236.5C 191.5,233.833 191.5,231.167 191.5,228.5C 192.15,228.804 192.817,229.137 193.5,229.5C 194.168,226.694 194.834,224.028 195.5,221.5 Z"/></g>
<g><path style="opacity:1" fill="#ee1d1d" d="M 319.5,228.5 C 319.5,226.833 319.5,225.167 319.5,223.5C 321.833,223.5 324.167,223.5 326.5,223.5C 326.806,226.385 326.473,229.052 325.5,231.5C 325.884,229.335 325.217,227.668 323.5,226.5C 321.266,230.282 320.933,234.282 322.5,238.5C 320.257,239.474 317.924,239.808 315.5,239.5C 314.363,244.905 313.03,250.239 311.5,255.5C 310.5,255.5 309.5,255.5 308.5,255.5C 308.5,259.167 308.5,262.833 308.5,266.5C 309.5,266.5 310.5,266.5 311.5,266.5C 312.114,262.865 312.448,259.198 312.5,255.5C 313.5,255.5 314.5,255.5 315.5,255.5C 315.5,254.167 315.5,252.833 315.5,251.5C 317.635,251.147 318.968,251.98 319.5,254C 318.963,255.792 318.63,257.625 318.5,259.5C 319.995,263.287 320.662,267.287 320.5,271.5C 321.833,271.5 323.167,271.5 324.5,271.5C 323.081,272.451 321.415,272.784 319.5,272.5C 318.042,267.622 316.709,262.622 315.5,257.5C 314.914,257.709 314.414,258.043 314,258.5C 313.004,262.816 312.17,267.149 311.5,271.5C 308.833,271.5 306.167,271.5 303.5,271.5C 303.167,271.5 302.833,271.5 302.5,271.5C 302.993,269.194 303.326,266.861 303.5,264.5C 303.5,263.833 303.5,263.167 303.5,262.5C 304.15,262.196 304.817,261.863 305.5,261.5C 306.357,257.404 307.524,253.404 309,249.5C 309.808,245.973 309.641,242.64 308.5,239.5C 307.833,236.167 307.167,232.833 306.5,229.5C 305.735,222.697 308.568,220.697 315,223.5C 315.26,227.25 315.927,230.916 317,234.5C 318.319,232.713 319.152,230.713 319.5,228.5 Z"/></g>
<g><path style="opacity:1" fill="#180201" d="M 255.5,230.5 C 258.5,230.5 261.5,230.5 264.5,230.5C 265.5,230.5 266.5,230.5 267.5,230.5C 267.663,232.857 267.497,235.19 267,237.5C 266.329,238.252 265.496,238.586 264.5,238.5C 261.713,237.523 258.713,237.19 255.5,237.5C 255.5,235.167 255.5,232.833 255.5,230.5 Z"/></g>
<g><path style="opacity:1" fill="#fb1716" d="M 325.5,231.5 C 324.438,236.976 323.438,242.476 322.5,248C 324.182,255.737 324.848,263.57 324.5,271.5C 323.167,271.5 321.833,271.5 320.5,271.5C 320.662,267.287 319.995,263.287 318.5,259.5C 318.63,257.625 318.963,255.792 319.5,254C 318.968,251.98 317.635,251.147 315.5,251.5C 315.5,252.833 315.5,254.167 315.5,255.5C 314.5,255.5 313.5,255.5 312.5,255.5C 312.448,259.198 312.114,262.865 311.5,266.5C 310.5,266.5 309.5,266.5 308.5,266.5C 308.5,262.833 308.5,259.167 308.5,255.5C 309.5,255.5 310.5,255.5 311.5,255.5C 313.03,250.239 314.363,244.905 315.5,239.5C 317.924,239.808 320.257,239.474 322.5,238.5C 320.933,234.282 321.266,230.282 323.5,226.5C 325.217,227.668 325.884,229.335 325.5,231.5 Z"/></g>
<g><path style="opacity:1" fill="#ce2629" d="M 326.5,223.5 C 327.5,223.5 328.5,223.5 329.5,223.5C 327.331,231.139 325.665,238.972 324.5,247C 324.764,251.042 325.43,254.875 326.5,258.5C 326.751,263.507 327.084,268.507 327.5,273.5C 324.615,273.806 321.948,273.473 319.5,272.5C 321.415,272.784 323.081,272.451 324.5,271.5C 324.848,263.57 324.182,255.737 322.5,248C 323.438,242.476 324.438,236.976 325.5,231.5C 326.473,229.052 326.806,226.385 326.5,223.5 Z"/></g>
<g><path style="opacity:1" fill="#8b1a1b" d="M 173.5,223.5 C 173.114,225.937 171.947,227.937 170,229.5C 169.192,233.027 169.359,236.36 170.5,239.5C 171.18,243.748 173.514,246.581 177.5,248C 180.118,250.106 182.118,252.606 183.5,255.5C 183.167,255.5 182.833,255.5 182.5,255.5C 181.167,253.5 179.5,251.833 177.5,250.5C 176.653,249.034 175.32,248.2 173.5,248C 172.177,247.184 171.511,246.017 171.5,244.5C 170.878,243.373 170.045,242.373 169,241.5C 168.501,237.179 168.334,232.846 168.5,228.5C 169.069,225.665 170.736,223.999 173.5,223.5 Z"/></g>
<g><path style="opacity:1" fill="#d02124" d="M 200.5,223.5 C 205.305,222.513 210.305,222.179 215.5,222.5C 215.721,225.279 215.388,227.946 214.5,230.5C 212.167,230.5 209.833,230.5 207.5,230.5C 207.5,233.5 207.5,236.5 207.5,239.5C 206.5,239.5 205.5,239.5 204.5,239.5C 202.328,230.675 205.661,227.009 214.5,228.5C 214.5,226.833 214.5,225.167 214.5,223.5C 209.833,223.5 205.167,223.5 200.5,223.5 Z"/></g>
<g><path style="opacity:1" fill="#360402" d="M 214.5,230.5 C 213.159,232.12 211.326,233.12 209,233.5C 209.135,235.425 209.302,237.425 209.5,239.5C 212.059,239.198 214.393,239.532 216.5,240.5C 213.5,240.5 210.5,240.5 207.5,240.5C 207.5,240.167 207.5,239.833 207.5,239.5C 207.5,236.5 207.5,233.5 207.5,230.5C 209.833,230.5 212.167,230.5 214.5,230.5 Z"/></g>
<g><path style="opacity:1" fill="#cc252b" d="M 298.5,222.5 C 300.45,227.735 301.117,233.402 300.5,239.5C 300.5,244.833 300.5,250.167 300.5,255.5C 299.512,260.64 299.179,265.974 299.5,271.5C 299.167,271.5 298.833,271.5 298.5,271.5C 298.5,255.167 298.5,238.833 298.5,222.5 Z"/></g>
<g><path style="opacity:1" fill="#480404" d="M 191.5,236.5 C 188.203,236.89 185.203,237.89 182.5,239.5C 181.504,239.586 180.671,239.252 180,238.5C 179.023,236.26 178.523,233.927 178.5,231.5C 181.91,231.384 183.244,233.05 182.5,236.5C 185.5,236.5 188.5,236.5 191.5,236.5 Z"/></g>
<g><path style="opacity:1" fill="#3e0200" d="M 219.5,230.5 C 221.467,230.261 223.301,230.594 225,231.5C 225.5,239.493 225.666,247.493 225.5,255.5C 225.5,260.5 225.5,265.5 225.5,270.5C 224.669,258.007 224.169,245.34 224,232.5C 222.378,231.901 220.878,231.234 219.5,230.5 Z"/></g>
<g><path style="opacity:1" fill="#460100" d="M 241.5,220.5 C 242.391,221.11 243.391,221.443 244.5,221.5C 244.5,237.833 244.5,254.167 244.5,270.5C 243.669,255.005 243.169,239.339 243,223.5C 242.809,225.708 242.309,227.708 241.5,229.5C 241.5,226.5 241.5,223.5 241.5,220.5 Z"/></g>
<g><path style="opacity:1" fill="#7c1114" d="M 255.5,230.5 C 255.5,232.833 255.5,235.167 255.5,237.5C 258.713,237.19 261.713,237.523 264.5,238.5C 264.5,241.167 264.5,243.833 264.5,246.5C 264.389,247.117 264.056,247.617 263.5,248C 260.854,248.497 258.187,248.664 255.5,248.5C 255.824,255.354 255.491,262.021 254.5,268.5C 254.5,262.833 254.5,257.167 254.5,251.5C 254.5,250.167 254.5,248.833 254.5,247.5C 257.247,247.813 259.914,247.48 262.5,246.5C 264.191,243.655 263.857,241.321 261.5,239.5C 260.167,239.5 258.833,239.5 257.5,239.5C 256.791,238.596 255.791,238.263 254.5,238.5C 254.194,235.615 254.527,232.948 255.5,230.5 Z"/></g>
<g><path style="opacity:1" fill="#2c0500" d="M 168.5,228.5 C 168.334,232.846 168.501,237.179 169,241.5C 170.045,242.373 170.878,243.373 171.5,244.5C 170.417,244.461 169.417,244.127 168.5,243.5C 167.186,238.348 167.186,233.348 168.5,228.5 Z"/></g>
<g><path style="opacity:1" fill="#c82b28" d="M 239.5,229.5 C 239.5,229.833 239.5,230.167 239.5,230.5C 238.167,230.5 236.833,230.5 235.5,230.5C 235.5,243.833 235.5,257.167 235.5,270.5C 232.5,270.5 229.5,270.5 226.5,270.5C 226.5,265.5 226.5,260.5 226.5,255.5C 227.485,259.634 227.818,263.968 227.5,268.5C 229.833,268.5 232.167,268.5 234.5,268.5C 234.5,255.5 234.5,242.5 234.5,229.5C 236.167,229.5 237.833,229.5 239.5,229.5 Z"/></g>
<g><path style="opacity:1" fill="#ec1e20" d="M 293.5,221.5 C 295.415,221.216 297.081,221.549 298.5,222.5C 298.5,238.833 298.5,255.167 298.5,271.5C 296.167,271.5 293.833,271.5 291.5,271.5C 290.658,266.213 290.324,260.88 290.5,255.5C 291.167,255.5 291.833,255.5 292.5,255.5C 292.334,259.514 292.501,263.514 293,267.5C 295.09,268.791 296.424,268.124 297,265.5C 297.5,251.504 297.667,237.504 297.5,223.5C 296.167,223.5 294.833,223.5 293.5,223.5C 293.821,229.026 293.488,234.36 292.5,239.5C 292.211,233.409 292.545,227.409 293.5,221.5 Z"/></g>
<g><path style="opacity:1" fill="#e82025" d="M 255.5,230.5 C 254.527,232.948 254.194,235.615 254.5,238.5C 255.791,238.263 256.791,238.596 257.5,239.5C 256.027,240.071 254.36,240.071 252.5,239.5C 252.234,235.429 252.567,231.429 253.5,227.5C 253.833,227.167 254.167,226.833 254.5,226.5C 256.868,228.223 259.534,228.89 262.5,228.5C 262.739,226.533 262.406,224.699 261.5,223C 256.845,222.501 252.179,222.334 247.5,222.5C 247.5,237.167 247.5,251.833 247.5,266.5C 248.822,266.67 249.989,266.337 251,265.5C 251.121,258.754 251.788,252.087 253,245.5C 254.427,243.416 256.093,243.416 258,245.5C 258.833,245.333 259.667,245.167 260.5,245C 261.406,243.301 261.739,241.467 261.5,239.5C 263.857,241.321 264.191,243.655 262.5,246.5C 259.914,247.48 257.247,247.813 254.5,247.5C 254.5,248.833 254.5,250.167 254.5,251.5C 253.673,256.985 253.173,262.652 253,268.5C 250.667,269.833 248.333,269.833 246,268.5C 245.5,252.837 245.333,237.17 245.5,221.5C 251.176,221.334 256.843,221.501 262.5,222C 263.435,224.381 263.768,226.881 263.5,229.5C 260.615,229.194 257.948,229.527 255.5,230.5 Z"/></g>
<g><path style="opacity:1" fill="#fb1716" d="M 257.5,239.5 C 258.833,239.5 260.167,239.5 261.5,239.5C 261.739,241.467 261.406,243.301 260.5,245C 259.667,245.167 258.833,245.333 258,245.5C 256.093,243.416 254.427,243.416 253,245.5C 251.788,252.087 251.121,258.754 251,265.5C 249.989,266.337 248.822,266.67 247.5,266.5C 247.5,251.833 247.5,237.167 247.5,222.5C 252.179,222.334 256.845,222.501 261.5,223C 262.406,224.699 262.739,226.533 262.5,228.5C 259.534,228.89 256.868,228.223 254.5,226.5C 254.167,226.833 253.833,227.167 253.5,227.5C 252.567,231.429 252.234,235.429 252.5,239.5C 254.36,240.071 256.027,240.071 257.5,239.5 Z"/></g>
<g><path style="opacity:1" fill="#3e0201" d="M 264.5,220.5 C 265.833,220.5 267.167,220.5 268.5,220.5C 268.5,226.833 268.5,233.167 268.5,239.5C 267.506,249.653 267.172,259.986 267.5,270.5C 266.67,260.341 266.17,250.008 266,239.5C 265.814,242.036 265.314,244.369 264.5,246.5C 264.5,243.833 264.5,241.167 264.5,238.5C 265.496,238.586 266.329,238.252 267,237.5C 267.497,235.19 267.663,232.857 267.5,230.5C 266.5,230.5 265.5,230.5 264.5,230.5C 264.5,227.167 264.5,223.833 264.5,220.5 Z"/></g>
<g><path style="opacity:1" fill="#fc1716" d="M 292.5,255.5 C 292.5,250.167 292.5,244.833 292.5,239.5C 293.488,234.36 293.821,229.026 293.5,223.5C 294.833,223.5 296.167,223.5 297.5,223.5C 297.667,237.504 297.5,251.504 297,265.5C 296.424,268.124 295.09,268.791 293,267.5C 292.501,263.514 292.334,259.514 292.5,255.5 Z"/></g>
<g><path style="opacity:1" fill="#f71919" d="M 187.5,271.5 C 184.833,271.5 182.167,271.5 179.5,271.5C 178.604,268.931 176.938,266.931 174.5,265.5C 173.139,263.016 173.306,260.683 175,258.5C 177.114,259.953 178.448,261.953 179,264.5C 181.717,267.321 184.05,266.987 186,263.5C 186.941,261.011 186.441,259.011 184.5,257.5C 184.672,256.508 184.338,255.842 183.5,255.5C 182.118,252.606 180.118,250.106 177.5,248C 173.514,246.581 171.18,243.748 170.5,239.5C 170.335,236.482 170.502,233.482 171,230.5C 172.986,226.423 176.153,224.923 180.5,226C 181.676,229.309 180.343,230.809 176.5,230.5C 176.848,234.557 177.514,238.557 178.5,242.5C 184.74,243.655 189.24,246.988 192,252.5C 192.667,256.833 192.667,261.167 192,265.5C 191.009,266.939 189.676,267.939 188,268.5C 187.517,269.448 187.351,270.448 187.5,271.5 Z"/></g>
<g><path style="opacity:1" fill="#550102" d="M 278.5,220.5 C 279.728,234.013 279.728,247.679 278.5,261.5C 281.713,261.19 284.713,261.523 287.5,262.5C 283.958,262.813 280.625,262.479 277.5,261.5C 277.5,254.167 277.5,246.833 277.5,239.5C 278.49,233.355 278.823,227.022 278.5,220.5 Z"/></g>
<g><path style="opacity:1" fill="#8c1819" d="M 207.5,240.5 C 210.5,240.5 213.5,240.5 216.5,240.5C 217.16,241.964 217.493,243.631 217.5,245.5C 217.444,247.64 216.777,249.306 215.5,250.5C 212.833,250.5 210.167,250.5 207.5,250.5C 209.893,249.79 212.393,249.123 215,248.5C 215.497,246.19 215.663,243.857 215.5,241.5C 212.615,241.806 209.948,241.473 207.5,240.5 Z"/></g>
<g><path style="opacity:1" fill="#e02328" d="M 277.5,239.5 C 277.5,246.833 277.5,254.167 277.5,261.5C 275.682,249.206 274.849,236.54 275,223.5C 273.951,222.483 272.784,222.316 271.5,223C 270.901,224.622 270.234,226.122 269.5,227.5C 269.5,225.5 269.5,223.5 269.5,221.5C 272.167,221.5 274.833,221.5 277.5,221.5C 277.5,227.5 277.5,233.5 277.5,239.5 Z"/></g>
<g><path style="opacity:1" fill="#64040a" d="M 196.5,239.5 C 196.833,239.5 197.167,239.5 197.5,239.5C 197.686,250.172 198.019,260.839 198.5,271.5C 197.691,269.708 197.191,267.708 197,265.5C 196.5,256.84 196.334,248.173 196.5,239.5 Z"/></g>
<g><path style="opacity:1" fill="#480301" d="M 291.5,221.5 C 291.241,232.836 290.907,244.169 290.5,255.5C 290.167,255.5 289.833,255.5 289.5,255.5C 289.254,243.961 289.921,232.628 291.5,221.5 Z"/></g>
<g><path style="opacity:1" fill="#c82a2e" d="M 291.5,221.5 C 292.167,221.5 292.833,221.5 293.5,221.5C 292.545,227.409 292.211,233.409 292.5,239.5C 292.5,244.833 292.5,250.167 292.5,255.5C 291.833,255.5 291.167,255.5 290.5,255.5C 290.907,244.169 291.241,232.836 291.5,221.5 Z"/></g>
<g><path style="opacity:1" fill="#4f0403" d="M 306.5,229.5 C 307.167,232.833 307.833,236.167 308.5,239.5C 309.035,244.312 308.035,248.645 305.5,252.5C 306.358,244.868 306.691,237.201 306.5,229.5 Z"/></g>
<g><path style="opacity:1" fill="#9e2728" d="M 264.5,220.5 C 264.5,223.833 264.5,227.167 264.5,230.5C 261.5,230.5 258.5,230.5 255.5,230.5C 257.948,229.527 260.615,229.194 263.5,229.5C 263.768,226.881 263.435,224.381 262.5,222C 256.843,221.501 251.176,221.334 245.5,221.5C 245.333,237.17 245.5,252.837 246,268.5C 248.333,269.833 250.667,269.833 253,268.5C 253.173,262.652 253.673,256.985 254.5,251.5C 254.5,257.167 254.5,262.833 254.5,268.5C 254.5,269.5 254.5,270.5 254.5,271.5C 250.958,271.813 247.625,271.479 244.5,270.5C 244.5,254.167 244.5,237.833 244.5,221.5C 244.611,220.883 244.944,220.383 245.5,220C 252.014,219.18 258.347,219.347 264.5,220.5 Z"/></g>
<g><path style="opacity:1" fill="#4e0c13" d="M 177.5,250.5 C 179.5,251.833 181.167,253.5 182.5,255.5C 180.72,256.99 180.054,258.99 180.5,261.5C 179.539,259.735 179.205,257.735 179.5,255.5C 176.833,255.5 174.167,255.5 171.5,255.5C 171.167,255.5 170.833,255.5 170.5,255.5C 171.953,253.771 173.953,252.771 176.5,252.5C 177.298,252.043 177.631,251.376 177.5,250.5 Z"/></g>
<g><path style="opacity:1" fill="#430307" d="M 207.5,250.5 C 210.167,250.5 212.833,250.5 215.5,250.5C 213.166,251.124 210.833,251.957 208.5,253C 209.435,255.381 209.768,257.881 209.5,260.5C 212.713,260.19 215.713,260.523 218.5,261.5C 214.833,261.5 211.167,261.5 207.5,261.5C 207.5,257.833 207.5,254.167 207.5,250.5 Z"/></g>
<g><path style="opacity:1" fill="#540505" d="M 329.5,223.5 C 330.634,225.966 330.801,228.633 330,231.5C 327.973,236.625 326.473,241.959 325.5,247.5C 326.246,251.132 326.579,254.798 326.5,258.5C 325.43,254.875 324.764,251.042 324.5,247C 325.665,238.972 327.331,231.139 329.5,223.5 Z"/></g>
<g><path style="opacity:1" fill="#260601" d="M 169.5,255.5 C 168.919,259.75 169.919,263.416 172.5,266.5C 172.629,268.216 172.962,269.883 173.5,271.5C 171.952,271.179 171.285,270.179 171.5,268.5C 169.876,268.64 168.71,267.973 168,266.5C 167.833,264.667 167.667,262.833 167.5,261C 167.547,258.705 168.213,256.871 169.5,255.5 Z"/></g>
<g><path style="opacity:1" fill="#f8181a" d="M 200.5,223.5 C 205.167,223.5 209.833,223.5 214.5,223.5C 214.5,225.167 214.5,226.833 214.5,228.5C 205.661,227.009 202.328,230.675 204.5,239.5C 205.5,239.5 206.5,239.5 207.5,239.5C 207.5,239.833 207.5,240.167 207.5,240.5C 209.948,241.473 212.615,241.806 215.5,241.5C 215.663,243.857 215.497,246.19 215,248.5C 212.393,249.123 209.893,249.79 207.5,250.5C 207.5,254.167 207.5,257.833 207.5,261.5C 210.123,263.265 213.123,263.932 216.5,263.5C 216.5,265.5 216.5,267.5 216.5,269.5C 213.5,269.5 210.5,269.5 207.5,269.5C 207.649,268.448 207.483,267.448 207,266.5C 204.916,269.033 202.916,269.033 201,266.5C 200.441,262.814 199.774,259.147 199,255.5C 198.83,245.658 198.33,235.991 197.5,226.5C 197.5,225.5 197.5,224.5 197.5,223.5C 198.5,223.5 199.5,223.5 200.5,223.5 Z"/></g>
<g><path style="opacity:1" fill="#a8272c" d="M 169.5,255.5 C 169.833,255.5 170.167,255.5 170.5,255.5C 170.833,255.5 171.167,255.5 171.5,255.5C 171.423,259.215 171.756,262.881 172.5,266.5C 169.919,263.416 168.919,259.75 169.5,255.5 Z"/></g>
<g><path style="opacity:1" fill="#1d0400" d="M 182.5,255.5 C 182.833,255.5 183.167,255.5 183.5,255.5C 183.808,257.924 183.474,260.257 182.5,262.5C 181.817,262.137 181.15,261.804 180.5,261.5C 180.054,258.99 180.72,256.99 182.5,255.5 Z"/></g>
<g><path style="opacity:1" fill="#b22125" d="M 308.5,239.5 C 309.641,242.64 309.808,245.973 309,249.5C 307.524,253.404 306.357,257.404 305.5,261.5C 304.817,261.863 304.15,262.196 303.5,262.5C 303.674,260.139 304.007,257.806 304.5,255.5C 305.404,254.791 305.737,253.791 305.5,252.5C 308.035,248.645 309.035,244.312 308.5,239.5 Z"/></g>
<g><path style="opacity:1" fill="#610f14" d="M 193.5,251.5 C 195.373,255.89 195.873,260.556 195,265.5C 194.777,267.881 193.61,269.547 191.5,270.5C 193.312,264.348 193.979,258.015 193.5,251.5 Z"/></g>
<g><path style="opacity:1" fill="#f51b1b" d="M 277.5,261.5 C 280.625,262.479 283.958,262.813 287.5,262.5C 287.5,264.833 287.5,267.167 287.5,269.5C 281.081,269.558 274.747,268.891 268.5,267.5C 268.5,258.167 268.5,248.833 268.5,239.5C 269.483,235.702 269.817,231.702 269.5,227.5C 270.234,226.122 270.901,224.622 271.5,223C 272.784,222.316 273.951,222.483 275,223.5C 274.849,236.54 275.682,249.206 277.5,261.5 Z"/></g>
<g><path style="opacity:1" fill="#5b0203" d="M 183.5,255.5 C 184.338,255.842 184.672,256.508 184.5,257.5C 184.5,259.5 184.5,261.5 184.5,263.5C 182.517,263.843 181.183,263.176 180.5,261.5C 181.15,261.804 181.817,262.137 182.5,262.5C 183.474,260.257 183.808,257.924 183.5,255.5 Z"/></g>
<g><path style="opacity:1" fill="#a61c15" d="M 289.5,255.5 C 289.833,255.5 290.167,255.5 290.5,255.5C 290.324,260.88 290.658,266.213 291.5,271.5C 290.833,271.5 290.167,271.5 289.5,271.5C 289.5,267.833 289.5,264.167 289.5,260.5C 289.5,258.833 289.5,257.167 289.5,255.5 Z"/></g>
<g><path style="opacity:1" fill="#e22022" d="M 171.5,255.5 C 174.167,255.5 176.833,255.5 179.5,255.5C 179.205,257.735 179.539,259.735 180.5,261.5C 181.183,263.176 182.517,263.843 184.5,263.5C 184.5,261.5 184.5,259.5 184.5,257.5C 186.441,259.011 186.941,261.011 186,263.5C 184.05,266.987 181.717,267.321 179,264.5C 178.448,261.953 177.114,259.953 175,258.5C 173.306,260.683 173.139,263.016 174.5,265.5C 176.938,266.931 178.604,268.931 179.5,271.5C 178.167,271.5 176.833,271.5 175.5,271.5C 174.833,271.5 174.167,271.5 173.5,271.5C 172.962,269.883 172.629,268.216 172.5,266.5C 171.756,262.881 171.423,259.215 171.5,255.5 Z"/></g>
<g><path style="opacity:1" fill="#500104" d="M 289.5,260.5 C 289.5,264.167 289.5,267.833 289.5,271.5C 288.833,271.5 288.167,271.5 287.5,271.5C 287.5,270.833 287.5,270.167 287.5,269.5C 287.5,267.167 287.5,264.833 287.5,262.5C 288.167,261.833 288.833,261.167 289.5,260.5 Z"/></g>
<g><path style="opacity:1" fill="#340301" d="M 300.5,255.5 C 300.335,258.85 300.502,262.183 301,265.5C 301.672,261.779 302.839,258.445 304.5,255.5C 304.007,257.806 303.674,260.139 303.5,262.5C 303.5,263.167 303.5,263.833 303.5,264.5C 302.076,266.515 301.41,268.848 301.5,271.5C 300.833,271.5 300.167,271.5 299.5,271.5C 299.179,265.974 299.512,260.64 300.5,255.5 Z"/></g>
<g><path style="opacity:1" fill="#d32321" d="M 197.5,226.5 C 198.33,235.991 198.83,245.658 199,255.5C 199.774,259.147 200.441,262.814 201,266.5C 202.916,269.033 204.916,269.033 207,266.5C 207.483,267.448 207.649,268.448 207.5,269.5C 210.5,269.5 213.5,269.5 216.5,269.5C 216.5,267.5 216.5,265.5 216.5,263.5C 213.123,263.932 210.123,263.265 207.5,261.5C 211.167,261.5 214.833,261.5 218.5,261.5C 219.638,264.304 219.805,267.304 219,270.5C 217.301,271.406 215.467,271.739 213.5,271.5C 208.5,271.5 203.5,271.5 198.5,271.5C 198.019,260.839 197.686,250.172 197.5,239.5C 197.5,235.167 197.5,230.833 197.5,226.5 Z"/></g>
<g><path style="opacity:1" fill="#b32323" d="M 268.5,239.5 C 268.5,248.833 268.5,258.167 268.5,267.5C 274.747,268.891 281.081,269.558 287.5,269.5C 287.5,270.167 287.5,270.833 287.5,271.5C 280.646,271.824 273.979,271.491 267.5,270.5C 267.172,259.986 267.506,249.653 268.5,239.5 Z"/></g>
<g><path style="opacity:1" fill="#4b0101" d="M 326.5,258.5 C 328.493,263.421 328.826,268.421 327.5,273.5C 327.084,268.507 326.751,263.507 326.5,258.5 Z"/></g>
<g><path style="opacity:1" fill="#670606" d="M 239.5,230.5 C 238.828,231.267 237.995,231.934 237,232.5C 236.5,245.496 236.333,258.496 236.5,271.5C 232.629,271.815 228.962,271.482 225.5,270.5C 225.5,265.5 225.5,260.5 225.5,255.5C 225.833,255.5 226.167,255.5 226.5,255.5C 226.5,260.5 226.5,265.5 226.5,270.5C 229.5,270.5 232.5,270.5 235.5,270.5C 235.5,257.167 235.5,243.833 235.5,230.5C 236.833,230.5 238.167,230.5 239.5,230.5 Z"/></g>
<g><path style="opacity:1" fill="#992327" d="M 303.5,264.5 C 303.326,266.861 302.993,269.194 302.5,271.5C 302.167,271.5 301.833,271.5 301.5,271.5C 301.41,268.848 302.076,266.515 303.5,264.5 Z"/></g>
<g><path style="opacity:1" fill="#54050a" d="M 319.5,272.5 C 321.948,273.473 324.615,273.806 327.5,273.5C 318.578,276.6 314.578,273.267 315.5,263.5C 314.537,266.548 313.204,269.214 311.5,271.5C 312.17,267.149 313.004,262.816 314,258.5C 314.414,258.043 314.914,257.709 315.5,257.5C 316.709,262.622 318.042,267.622 319.5,272.5 Z"/></g>
<g><path style="opacity:1" fill="#1d0303" d="M 195.5,236.5 C 195.5,237.167 195.833,237.5 196.5,237.5C 196.5,238.167 196.5,238.833 196.5,239.5C 196.334,248.173 196.5,256.84 197,265.5C 197.191,267.708 197.691,269.708 198.5,271.5C 203.5,271.5 208.5,271.5 213.5,271.5C 208.339,272.786 203.006,273.786 197.5,274.5C 195.68,273.117 193.68,272.117 191.5,271.5C 191.5,271.167 191.5,270.833 191.5,270.5C 193.61,269.547 194.777,267.881 195,265.5C 195.873,260.556 195.373,255.89 193.5,251.5C 192.928,249.745 192.094,248.078 191,246.5C 187.718,244.599 184.885,242.266 182.5,239.5C 185.203,237.89 188.203,236.89 191.5,236.5C 192.964,235.595 194.298,235.595 195.5,236.5 Z"/></g>
<g><path style="opacity:1" fill="#a11b23" d="M 175.5,271.5 C 176.833,271.5 178.167,271.5 179.5,271.5C 182.167,271.5 184.833,271.5 187.5,271.5C 187.082,272.222 186.416,272.722 185.5,273C 182.183,273.498 178.85,273.665 175.5,273.5C 175.5,272.833 175.5,272.167 175.5,271.5 Z"/></g>
<g><path style="opacity:1" fill="#430205" d="M 187.5,271.5 C 188.833,271.5 190.167,271.5 191.5,271.5C 190.158,272.793 188.491,273.626 186.5,274C 182.642,274.81 178.976,274.643 175.5,273.5C 178.85,273.665 182.183,273.498 185.5,273C 186.416,272.722 187.082,272.222 187.5,271.5 Z"/></g>
<g><path style="opacity:1" fill="#480d15" d="M 303.5,271.5 C 306.167,271.5 308.833,271.5 311.5,271.5C 311.441,273.722 310.275,274.722 308,274.5C 306.058,274.041 304.558,273.041 303.5,271.5 Z"/></g>
</svg>
